<svg width="337" height="57" viewBox="0 0 337 57" fill="none" xmlns="http://www.w3.org/2000/svg">
<rect width="337" height="57" fill="#323232"/>
<path fill-rule="evenodd" clip-rule="evenodd" d="M77.25 21.4781C77.25 19.4071 78.9289 17.7281 81 17.7281H91C93.0711 17.7281 94.75 19.4071 94.75 21.4781V26.4781C94.75 28.5492 93.0711 30.2281 91 30.2281H90.5C89.8096 30.2281 89.25 29.6685 89.25 28.9781V24.9781C89.25 24.0116 88.4665 23.2281 87.5 23.2281H79C78.0335 23.2281 77.25 22.4446 77.25 21.4781ZM81 19.2281C79.7574 19.2281 78.75 20.2355 78.75 21.4781C78.75 21.6162 78.8619 21.7281 79 21.7281H87.5C89.2949 21.7281 90.75 23.1832 90.75 24.9781V28.7281H91C92.2426 28.7281 93.25 27.7208 93.25 26.4781V21.4781C93.25 20.2355 92.2426 19.2281 91 19.2281H81Z" fill="white"/>
<path fill-rule="evenodd" clip-rule="evenodd" d="M73.25 25.4781C73.25 23.407 74.9289 21.7281 77 21.7281H87C89.0711 21.7281 90.75 23.4071 90.75 25.4781V30.8115C90.75 32.8825 89.0711 34.5615 87 34.5615H83.475L79.5754 38.8583C78.7651 39.7511 77.2851 39.0924 77.4061 37.8928L77.742 34.5615H77C74.9289 34.5615 73.25 32.8825 73.25 30.8115V25.4781ZM77 23.2281C75.7574 23.2281 74.75 24.2355 74.75 25.4781V30.8115C74.75 32.0541 75.7574 33.0615 77 33.0615H78.0185C78.7584 33.0615 79.3364 33.7007 79.2622 34.4369L78.9746 37.2882L82.4387 33.4714C82.6756 33.2103 83.0117 33.0615 83.3643 33.0615H87C88.2426 33.0615 89.25 32.0541 89.25 30.8115V25.4781C89.25 24.2355 88.2426 23.2281 87 23.2281H77Z" fill="white"/>
<path d="M106.268 35V21.1818H108.353V27.1868H115.242V21.1818H117.333V35H115.242V28.9748H108.353V35H106.268Z" fill="white"/>
<path d="M132.373 28.0909C132.373 29.5663 132.103 30.8348 131.563 31.8963C131.023 32.9534 130.284 33.7675 129.343 34.3388C128.408 34.9055 127.344 35.1889 126.152 35.1889C124.955 35.1889 123.887 34.9055 122.947 34.3388C122.011 33.7675 121.274 32.9511 120.734 31.8896C120.194 30.828 119.924 29.5618 119.924 28.0909C119.924 26.6155 120.194 25.3493 120.734 24.2923C121.274 23.2307 122.011 22.4165 122.947 21.8498C123.887 21.2785 124.955 20.9929 126.152 20.9929C127.344 20.9929 128.408 21.2785 129.343 21.8498C130.284 22.4165 131.023 23.2307 131.563 24.2923C132.103 25.3493 132.373 26.6155 132.373 28.0909ZM130.308 28.0909C130.308 26.9664 130.126 26.0195 129.762 25.2504C129.402 24.4767 128.907 23.8919 128.277 23.4961C127.652 23.0958 126.944 22.8956 126.152 22.8956C125.356 22.8956 124.645 23.0958 124.02 23.4961C123.395 23.8919 122.9 24.4767 122.536 25.2504C122.176 26.0195 121.996 26.9664 121.996 28.0909C121.996 29.2154 122.176 30.1645 122.536 30.9382C122.9 31.7074 123.395 32.2921 124.02 32.6925C124.645 33.0883 125.356 33.2862 126.152 33.2862C126.944 33.2862 127.652 33.0883 128.277 32.6925C128.907 32.2921 129.402 31.7074 129.762 30.9382C130.126 30.1645 130.308 29.2154 130.308 28.0909Z" fill="white"/>
<path d="M134.972 35V21.1818H140.033C141.013 21.1818 141.825 21.3437 142.468 21.6676C143.112 21.987 143.593 22.421 143.912 22.9698C144.232 23.5141 144.391 24.1281 144.391 24.8118C144.391 25.3875 144.286 25.8733 144.074 26.2692C143.863 26.6605 143.579 26.9754 143.224 27.2138C142.873 27.4477 142.486 27.6186 142.063 27.7266V27.8615C142.522 27.884 142.97 28.0324 143.406 28.3068C143.847 28.5767 144.211 28.9613 144.499 29.4606C144.787 29.9599 144.931 30.5671 144.931 31.2823C144.931 31.9885 144.765 32.6228 144.432 33.185C144.103 33.7428 143.595 34.1858 142.907 34.5142C142.219 34.8381 141.339 35 140.269 35H134.972ZM137.057 33.212H140.066C141.065 33.212 141.78 33.0186 142.212 32.6317C142.644 32.2449 142.86 31.7614 142.86 31.1811C142.86 30.7448 142.749 30.3445 142.529 29.9801C142.309 29.6158 141.994 29.3256 141.584 29.1097C141.18 28.8938 140.698 28.7859 140.141 28.7859H137.057V33.212ZM137.057 27.1598H139.85C140.318 27.1598 140.739 27.0698 141.112 26.8899C141.49 26.71 141.789 26.4581 142.01 26.1342C142.234 25.8059 142.347 25.419 142.347 24.9737C142.347 24.4025 142.147 23.9234 141.746 23.5366C141.346 23.1497 140.732 22.9563 139.904 22.9563H137.057V27.1598Z" fill="white"/>
<path d="M148.868 26.755H152.592C153.618 26.755 154.491 26.9214 155.21 27.2543C155.93 27.5871 156.479 28.0572 156.857 28.6644C157.239 29.2717 157.428 29.9869 157.423 30.81C157.428 31.6332 157.239 32.3596 156.857 32.9893C156.479 33.6191 155.93 34.1116 155.21 34.467C154.491 34.8223 153.618 35 152.592 35H147.417V21.1818H149.509V33.2457H152.592C153.191 33.2457 153.694 33.1288 154.104 32.8949C154.518 32.661 154.83 32.3574 155.042 31.984C155.258 31.6107 155.366 31.2103 155.366 30.783C155.366 30.1623 155.127 29.6293 154.65 29.1839C154.174 28.7341 153.488 28.5092 152.592 28.5092H148.868V26.755ZM160.79 21.1818V35H158.699V21.1818H160.79Z" fill="white"/>
<path d="M163.825 21.1818H165.889V31.3295H166.018L173.048 21.1818H174.978V35H172.893V24.8658H172.765L165.748 35H163.825V21.1818ZM170.727 17.6733H172.387C172.387 18.4335 172.117 19.052 171.577 19.5288C171.042 20.0011 170.318 20.2372 169.405 20.2372C168.496 20.2372 167.774 20.0011 167.239 19.5288C166.704 19.052 166.436 18.4335 166.436 17.6733H168.089C168.089 18.0107 168.188 18.3098 168.386 18.5707C168.584 18.8271 168.923 18.9553 169.405 18.9553C169.877 18.9553 170.214 18.8271 170.417 18.5707C170.624 18.3143 170.727 18.0152 170.727 17.6733Z" fill="white"/>
<path d="M182.002 38.3398V33.2322H182.912C183.223 32.9714 183.513 32.6003 183.783 32.119C184.053 31.6377 184.282 30.9877 184.471 30.169C184.66 29.3504 184.79 28.3001 184.862 27.0181L185.186 21.1818H193.708V33.2322H195.273V38.3196H193.276V35H183.999V38.3398H182.002ZM185.368 33.2322H191.711V22.9766H187.075L186.86 27.0181C186.801 27.9942 186.704 28.8713 186.569 29.6495C186.439 30.4277 186.27 31.1159 186.063 31.7141C185.861 32.3079 185.629 32.8139 185.368 33.2322Z" fill="white"/>
<path d="M197.557 21.1818H199.622V31.3295H199.75L206.781 21.1818H208.71V35H206.625V24.8658H206.497L199.48 35H197.557V21.1818Z" fill="white"/>
<path d="M212.919 35H210.706L215.678 21.1818H218.087L223.06 35H220.847L216.94 23.6918H216.832L212.919 35ZM213.29 29.5888H220.469V31.343H213.29V29.5888Z" fill="white"/>
<path d="M224.009 35V33.1918L224.414 33.1783C224.963 33.1648 225.395 32.9781 225.71 32.6183C226.029 32.2584 226.261 31.6781 226.405 30.8775C226.553 30.0768 226.652 29.0085 226.702 27.6726L226.938 21.1818H235.675V35H233.617V22.9496H228.901L228.685 28.2259C228.627 29.7057 228.478 30.9495 228.24 31.957C228.001 32.9601 227.597 33.718 227.025 34.2308C226.459 34.7436 225.651 35 224.603 35H224.009Z" fill="white"/>
<path d="M250.715 28.0909C250.715 29.5663 250.445 30.8348 249.905 31.8963C249.365 32.9534 248.625 33.7675 247.685 34.3388C246.75 34.9055 245.686 35.1889 244.494 35.1889C243.297 35.1889 242.229 34.9055 241.289 34.3388C240.353 33.7675 239.616 32.9511 239.076 31.8896C238.536 30.828 238.266 29.5618 238.266 28.0909C238.266 26.6155 238.536 25.3493 239.076 24.2923C239.616 23.2307 240.353 22.4165 241.289 21.8498C242.229 21.2785 243.297 20.9929 244.494 20.9929C245.686 20.9929 246.75 21.2785 247.685 21.8498C248.625 22.4165 249.365 23.2307 249.905 24.2923C250.445 25.3493 250.715 26.6155 250.715 28.0909ZM248.65 28.0909C248.65 26.9664 248.468 26.0195 248.104 25.2504C247.744 24.4767 247.249 23.8919 246.619 23.4961C245.994 23.0958 245.285 22.8956 244.494 22.8956C243.698 22.8956 242.987 23.0958 242.362 23.4961C241.736 23.8919 241.242 24.4767 240.877 25.2504C240.517 26.0195 240.338 26.9664 240.338 28.0909C240.338 29.2154 240.517 30.1645 240.877 30.9382C241.242 31.7074 241.736 32.2921 242.362 32.6925C242.987 33.0883 243.698 33.2862 244.494 33.2862C245.285 33.2862 245.994 33.0883 246.619 32.6925C247.249 32.2921 247.744 31.7074 248.104 30.9382C248.468 30.1645 248.65 29.2154 248.65 28.0909Z" fill="white"/>
<path d="M261.93 21.1818V22.9766H255.399V35H253.314V21.1818H261.93Z" fill="white"/>
</svg>
