<svg width="22" height="23" viewBox="0 0 22 23" fill="none" xmlns="http://www.w3.org/2000/svg">
<path fill-rule="evenodd" clip-rule="evenodd" d="M4.25 4.47812C4.25 2.40705 5.92893 0.728119 8 0.728119H18C20.0711 0.728119 21.75 2.40705 21.75 4.47812V9.47812C21.75 11.5492 20.0711 13.2281 18 13.2281H17.5C16.8096 13.2281 16.25 12.6685 16.25 11.9781V7.97812C16.25 7.01162 15.4665 6.22812 14.5 6.22812H6C5.0335 6.22812 4.25 5.44462 4.25 4.47812ZM8 2.22812C6.75736 2.22812 5.75 3.23548 5.75 4.47812C5.75 4.61619 5.86193 4.72812 6 4.72812H14.5C16.2949 4.72812 17.75 6.18319 17.75 7.97812V11.7281H18C19.2426 11.7281 20.25 10.7208 20.25 9.47812V4.47812C20.25 3.23548 19.2426 2.22812 18 2.22812H8Z" fill="white"/>
<path fill-rule="evenodd" clip-rule="evenodd" d="M0.25 8.47812C0.25 6.40705 1.92893 4.72812 4 4.72812H14C16.0711 4.72812 17.75 6.40705 17.75 8.47812V13.8115C17.75 15.8825 16.0711 17.5615 14 17.5615H10.475L6.57538 21.8583C5.76508 22.7511 4.28509 22.0924 4.40606 20.8928L4.74199 17.5615H4C1.92893 17.5615 0.25 15.8825 0.25 13.8115V8.47812ZM4 6.22812C2.75736 6.22812 1.75 7.23548 1.75 8.47812V13.8115C1.75 15.0541 2.75736 16.0615 4 16.0615H5.01847C5.75842 16.0615 6.3364 16.7007 6.26217 17.4369L5.97463 20.2882L9.43866 16.4714C9.67559 16.2103 10.0117 16.0615 10.3643 16.0615H14C15.2426 16.0615 16.25 15.0541 16.25 13.8115V8.47812C16.25 7.23548 15.2426 6.22812 14 6.22812H4Z" fill="white"/>
</svg>
