<svg width="337" height="57" viewBox="0 0 337 57" fill="none" xmlns="http://www.w3.org/2000/svg">
<rect width="337" height="57" fill="#323232"/>
<path fill-rule="evenodd" clip-rule="evenodd" d="M115.75 33.2139C115.75 32.7997 116.086 32.4639 116.5 32.4639L135.071 32.4639C135.486 32.4639 135.821 32.7997 135.821 33.2139C135.821 33.6281 135.486 33.9639 135.071 33.9639L116.5 33.9639C116.086 33.9639 115.75 33.6281 115.75 33.2139Z" fill="white"/>
<path fill-rule="evenodd" clip-rule="evenodd" d="M130.186 28.4787C130.434 28.1473 130.904 28.0802 131.236 28.3287L136.417 32.2144C137.083 32.7144 137.083 33.7144 136.417 34.2144L131.236 38.1001C130.904 38.3487 130.434 38.2815 130.186 37.9501C129.937 37.6188 130.004 37.1487 130.336 36.9001L135.25 33.2144L130.336 29.5287C130.004 29.2802 129.937 28.8101 130.186 28.4787Z" fill="white"/>
<path fill-rule="evenodd" clip-rule="evenodd" d="M137.25 23.7861C137.25 24.2003 136.914 24.5361 136.5 24.5361L117.929 24.5361C117.514 24.5361 117.179 24.2003 117.179 23.7861C117.179 23.3719 117.514 23.0361 117.929 23.0361L136.5 23.0361C136.914 23.0361 137.25 23.3719 137.25 23.7861Z" fill="white"/>
<path fill-rule="evenodd" clip-rule="evenodd" d="M122.814 28.5213C122.566 28.8527 122.096 28.9198 121.764 28.6713L116.583 24.7856C115.917 24.2856 115.917 23.2856 116.583 22.7856L121.764 18.8999C122.096 18.6513 122.566 18.7185 122.814 19.0499C123.063 19.3812 122.996 19.8513 122.664 20.0999L117.75 23.7856L122.664 27.4713C122.996 27.7198 123.063 28.1899 122.814 28.5213Z" fill="white"/>
<path d="M148.768 35V21.1818H153.694C154.769 21.1818 155.659 21.3775 156.365 21.7688C157.072 22.1602 157.6 22.6954 157.951 23.3747C158.302 24.0494 158.477 24.8095 158.477 25.6552C158.477 26.5053 158.3 27.27 157.944 27.9492C157.593 28.6239 157.063 29.1592 156.352 29.555C155.646 29.9464 154.757 30.1421 153.687 30.1421H150.3V28.3743H153.498C154.177 28.3743 154.728 28.2573 155.151 28.0234C155.574 27.785 155.884 27.4612 156.082 27.0519C156.28 26.6425 156.379 26.177 156.379 25.6552C156.379 25.1334 156.28 24.6701 156.082 24.2653C155.884 23.8604 155.571 23.5433 155.144 23.3139C154.721 23.0845 154.164 22.9698 153.471 22.9698H150.853V35H148.768Z" fill="white"/>
<path d="M160.921 35V21.1818H169.585V22.9766H163.006V27.1868H169.133V28.9748H163.006V33.2053H169.666V35H160.921Z" fill="white"/>
<path d="M181.33 21.1818V35H179.265V21.1818H181.33ZM171.378 35L175.804 27.7671L171.688 21.1818H174.239L177.666 27.1598H182.976L186.377 21.1818H188.92L184.818 27.7805L189.217 35H186.782L183.307 29.103H177.309L173.787 35H171.378Z" fill="white"/>
<path d="M191.258 21.1818H193.323V31.3296H193.451L200.482 21.1818H202.411V35H200.327V24.8658H200.198L193.181 35H191.258V21.1818Z" fill="white"/>
<path d="M205.453 21.1818H207.983L212.382 31.9233H212.544L216.943 21.1818H219.473V35H217.49V25.0007H217.361L213.286 34.9798H211.64L207.565 24.994H207.436V35H205.453V21.1818Z" fill="white"/>
</svg>
