<svg width="23" height="21" viewBox="0 0 23 21" fill="none" xmlns="http://www.w3.org/2000/svg">
<path fill-rule="evenodd" clip-rule="evenodd" d="M0.75 15.2139C0.75 14.7997 1.08579 14.4639 1.5 14.4639L20.0714 14.4639C20.4856 14.4639 20.8214 14.7997 20.8214 15.2139C20.8214 15.6281 20.4856 15.9639 20.0714 15.9639L1.5 15.9639C1.08579 15.9639 0.75 15.6281 0.75 15.2139Z" fill="white"/>
<path fill-rule="evenodd" clip-rule="evenodd" d="M15.1856 10.4787C15.4342 10.1473 15.9043 10.0802 16.2356 10.3287L21.4166 14.2144C22.0833 14.7144 22.0833 15.7144 21.4166 16.2144L16.2356 20.1001C15.9043 20.3487 15.4342 20.2815 15.1856 19.9501C14.9371 19.6188 15.0043 19.1487 15.3356 18.9001L20.2499 15.2144L15.3356 11.5287C15.0043 11.2802 14.9371 10.8101 15.1856 10.4787Z" fill="white"/>
<path fill-rule="evenodd" clip-rule="evenodd" d="M22.25 5.78613C22.25 6.20035 21.9142 6.53613 21.5 6.53613L2.92857 6.53613C2.51436 6.53613 2.17857 6.20035 2.17857 5.78613C2.17857 5.37192 2.51436 5.03613 2.92857 5.03613L21.5 5.03613C21.9142 5.03613 22.25 5.37192 22.25 5.78613Z" fill="white"/>
<path fill-rule="evenodd" clip-rule="evenodd" d="M7.81436 10.5213C7.56583 10.8527 7.09573 10.9198 6.76436 10.6713L1.58341 6.78558C0.916739 6.28558 0.916739 5.28558 1.58341 4.78558L6.76436 0.899863C7.09573 0.651336 7.56583 0.718493 7.81436 1.04986C8.06289 1.38123 7.99573 1.85134 7.66436 2.09986L2.75007 5.78558L7.66436 9.47129C7.99573 9.71982 8.06289 10.1899 7.81436 10.5213Z" fill="white"/>
</svg>
