<svg width="27" height="24" viewBox="0 0 27 24" fill="none" xmlns="http://www.w3.org/2000/svg">
<path fill-rule="evenodd" clip-rule="evenodd" d="M0.541565 12.0019C0.541565 10.8628 1.46498 9.93941 2.60406 9.93941H24.6041C25.7432 9.93941 26.6666 10.8628 26.6666 12.0019C26.6666 13.141 25.7432 14.0644 24.6041 14.0644H2.60406C1.46498 14.0644 0.541565 13.141 0.541565 12.0019Z" fill="white"/>
<path fill-rule="evenodd" clip-rule="evenodd" d="M13.6041 23.6894C12.465 23.6894 11.5416 22.766 11.5416 21.6269L11.5416 2.37691C11.5416 1.23782 12.465 0.314407 13.6041 0.314407C14.7432 0.314407 15.6666 1.23782 15.6666 2.37691L15.6666 21.6269C15.6666 22.766 14.7432 23.6894 13.6041 23.6894Z" fill="white"/>
</svg>
