<svg width="55" height="55" viewBox="0 0 55 55" fill="none" xmlns="http://www.w3.org/2000/svg">
<circle cx="27.4944" cy="27.5" r="26.0701" fill="#4200FF"/>
<path fill-rule="evenodd" clip-rule="evenodd" d="M14.4319 27.5C14.4319 26.3609 15.3553 25.4375 16.4944 25.4375H38.4944C39.6335 25.4375 40.5569 26.3609 40.5569 27.5C40.5569 28.6391 39.6335 29.5625 38.4944 29.5625H16.4944C15.3553 29.5625 14.4319 28.6391 14.4319 27.5Z" fill="white"/>
<path fill-rule="evenodd" clip-rule="evenodd" d="M27.4944 39.1875C26.3553 39.1875 25.4319 38.2641 25.4319 37.125L25.4319 17.875C25.4319 16.7359 26.3553 15.8125 27.4944 15.8125C28.6335 15.8125 29.5569 16.7359 29.5569 17.875L29.5569 37.125C29.5569 38.2641 28.6335 39.1875 27.4944 39.1875Z" fill="white"/>
<path fill-rule="evenodd" clip-rule="evenodd" d="M27.4944 4.125C14.5848 4.125 4.11942 14.5903 4.11942 27.5C4.11942 40.4097 14.5848 50.875 27.4944 50.875C40.4041 50.875 50.8694 40.4097 50.8694 27.5C50.8694 14.5903 40.4041 4.125 27.4944 4.125ZM-0.00558472 27.5C-0.00558472 12.3122 12.3066 0 27.4944 0C42.6822 0 54.9944 12.3122 54.9944 27.5C54.9944 42.6878 42.6822 55 27.4944 55C12.3066 55 -0.00558472 42.6878 -0.00558472 27.5Z" fill="#4200FF"/>
</svg>
