<svg width="22" height="21" viewBox="0 0 22 21" fill="none" xmlns="http://www.w3.org/2000/svg">
<path fill-rule="evenodd" clip-rule="evenodd" d="M9.40058 1.25392C10.0162 -0.132494 11.9838 -0.132488 12.5994 1.25392L13.6569 3.63549C13.711 3.75721 13.8509 3.81519 13.9752 3.76734L16.407 2.83108C17.8226 2.28604 19.2139 3.67735 18.6689 5.09299L17.7327 7.52477C17.6848 7.64906 17.7428 7.78904 17.8645 7.84308L20.2461 8.90058C21.6325 9.5162 21.6325 11.4838 20.2461 12.0994L17.8645 13.1569C17.7428 13.211 17.6848 13.3509 17.7327 13.4752L18.6689 15.907C19.214 17.3226 17.8226 18.7139 16.407 18.1689L13.9752 17.2327C13.8509 17.1848 13.711 17.2428 13.6569 17.3645L12.5994 19.7461C11.9838 21.1325 10.0162 21.1325 9.40058 19.7461L8.34308 17.3645C8.28904 17.2428 8.14906 17.1848 8.02477 17.2327L5.59299 18.1689C4.17734 18.714 2.78604 17.3226 3.33108 15.907L4.26734 13.4752C4.31519 13.3509 4.25721 13.211 4.13549 13.1569L1.75392 12.0994C0.367506 11.4838 0.367512 9.51619 1.75392 8.90058L4.13549 7.84308C4.25721 7.78904 4.31519 7.64906 4.26734 7.52477L3.33108 5.09299C2.78604 3.67735 4.17734 2.28604 5.59299 2.83108L8.02477 3.76734C8.14906 3.81519 8.28904 3.75721 8.34308 3.63549L9.40058 1.25392ZM11.2285 1.86266C11.1405 1.6646 10.8595 1.6646 10.7715 1.86265L9.71401 4.24422C9.33568 5.09626 8.35582 5.50213 7.48582 5.16717L5.05404 4.23091C4.85181 4.15305 4.65305 4.3518 4.73091 4.55404L5.66717 6.98582C6.00213 7.85582 5.59626 8.83568 4.74422 9.21401L2.36266 10.2715C2.1646 10.3595 2.1646 10.6405 2.36265 10.7285L4.74422 11.786C5.59626 12.1643 6.00213 13.1442 5.66717 14.0142L4.73091 16.4459C4.65305 16.6482 4.85181 16.8469 5.05404 16.7691L7.48582 15.8328C8.35582 15.4979 9.33568 15.9037 9.71401 16.7558L10.7715 19.1373C10.8595 19.3354 11.1405 19.3354 11.2285 19.1373L12.286 16.7558C12.6643 15.9037 13.6442 15.4979 14.5142 15.8328L16.9459 16.7691C17.1482 16.8469 17.3469 16.6482 17.2691 16.446L16.3328 14.0142C15.9979 13.1442 16.4037 12.1643 17.2558 11.786L19.6373 10.7285C19.8354 10.6405 19.8354 10.3595 19.6373 10.2715L17.2558 9.21401C16.4037 8.83568 15.9979 7.85583 16.3328 6.98582L17.2691 4.55404C17.3469 4.3518 17.1482 4.15305 16.946 4.23091L14.5142 5.16717C13.6442 5.50213 12.6643 5.09626 12.286 4.24422L11.2285 1.86266Z" fill="white"/>
<path fill-rule="evenodd" clip-rule="evenodd" d="M11 8.5C9.89543 8.5 9 9.39543 9 10.5C9 11.6046 9.89543 12.5 11 12.5C12.1046 12.5 13 11.6046 13 10.5C13 9.39543 12.1046 8.5 11 8.5ZM7.5 10.5C7.5 8.567 9.067 7 11 7C12.933 7 14.5 8.567 14.5 10.5C14.5 12.433 12.933 14 11 14C9.067 14 7.5 12.433 7.5 10.5Z" fill="white"/>
</svg>
