<svg width="337" height="57" viewBox="0 0 337 57" fill="none" xmlns="http://www.w3.org/2000/svg">
<rect width="337" height="57" fill="#323232"/>
<path fill-rule="evenodd" clip-rule="evenodd" d="M101.401 19.2539C102.016 17.8675 103.984 17.8675 104.599 19.2539L105.657 21.6355C105.711 21.7572 105.851 21.8152 105.975 21.7673L108.407 20.8311C109.823 20.286 111.214 21.6774 110.669 23.093L109.733 25.5248C109.685 25.6491 109.743 25.789 109.865 25.8431L112.246 26.9006C113.632 27.5162 113.632 29.4838 112.246 30.0994L109.865 31.1569C109.743 31.211 109.685 31.3509 109.733 31.4752L110.669 33.907C111.214 35.3226 109.823 36.7139 108.407 36.1689L105.975 35.2327C105.851 35.1848 105.711 35.2428 105.657 35.3645L104.599 37.7461C103.984 39.1325 102.016 39.1325 101.401 37.7461L100.343 35.3645C100.289 35.2428 100.149 35.1848 100.025 35.2327L97.593 36.1689C96.1773 36.714 94.786 35.3226 95.3311 33.907L96.2673 31.4752C96.3152 31.3509 96.2572 31.211 96.1355 31.1569L93.7539 30.0994C92.3675 29.4838 92.3675 27.5162 93.7539 26.9006L96.1355 25.8431C96.2572 25.789 96.3152 25.6491 96.2673 25.5248L95.3311 23.093C94.786 21.6774 96.1773 20.286 97.593 20.8311L100.025 21.7673C100.149 21.8152 100.289 21.7572 100.343 21.6355L101.401 19.2539ZM103.228 19.8627C103.141 19.6646 102.859 19.6646 102.772 19.8627L101.714 22.2442C101.336 23.0963 100.356 23.5021 99.4858 23.1672L97.054 22.2309C96.8518 22.153 96.653 22.3518 96.7309 22.554L97.6672 24.9858C98.0021 25.8558 97.5963 26.8357 96.7442 27.214L94.3627 28.2715C94.1646 28.3595 94.1646 28.6405 94.3627 28.7285L96.7442 29.786C97.5963 30.1643 98.0021 31.1442 97.6672 32.0142L96.7309 34.4459C96.653 34.6482 96.8518 34.8469 97.054 34.7691L99.4858 33.8328C100.356 33.4979 101.336 33.9037 101.714 34.7558L102.772 37.1373C102.859 37.3354 103.141 37.3354 103.228 37.1373L104.286 34.7558C104.664 33.9037 105.644 33.4979 106.514 33.8328L108.946 34.7691C109.148 34.8469 109.347 34.6482 109.269 34.446L108.333 32.0142C107.998 31.1442 108.404 30.1643 109.256 29.786L111.637 28.7285C111.835 28.6405 111.835 28.3595 111.637 28.2715L109.256 27.214C108.404 26.8357 107.998 25.8558 108.333 24.9858L109.269 22.554C109.347 22.3518 109.148 22.153 108.946 22.2309L106.514 23.1672C105.644 23.5021 104.664 23.0963 104.286 22.2442L103.228 19.8627Z" fill="white"/>
<path fill-rule="evenodd" clip-rule="evenodd" d="M103 26.5C101.895 26.5 101 27.3954 101 28.5C101 29.6046 101.895 30.5 103 30.5C104.105 30.5 105 29.6046 105 28.5C105 27.3954 104.105 26.5 103 26.5ZM99.5 28.5C99.5 26.567 101.067 25 103 25C104.933 25 106.5 26.567 106.5 28.5C106.5 30.433 104.933 32 103 32C101.067 32 99.5 30.433 99.5 28.5Z" fill="white"/>
<path d="M124.804 35V21.1818H129.864C130.845 21.1818 131.657 21.3438 132.3 21.6676C132.943 21.987 133.425 22.4211 133.744 22.9698C134.063 23.5141 134.223 24.1281 134.223 24.8118C134.223 25.3876 134.117 25.8733 133.906 26.2692C133.694 26.6605 133.411 26.9754 133.056 27.2138C132.705 27.4477 132.318 27.6186 131.895 27.7266V27.8615C132.354 27.884 132.802 28.0324 133.238 28.3068C133.679 28.5767 134.043 28.9613 134.331 29.4606C134.619 29.9599 134.763 30.5671 134.763 31.2823C134.763 31.9885 134.596 32.6228 134.264 33.185C133.935 33.7428 133.427 34.1859 132.739 34.5142C132.05 34.8381 131.171 35 130.101 35H124.804ZM126.889 33.212H129.898C130.897 33.212 131.612 33.0186 132.044 32.6318C132.476 32.2449 132.691 31.7614 132.691 31.1811C132.691 30.7448 132.581 30.3445 132.361 29.9801C132.14 29.6158 131.826 29.3256 131.416 29.1097C131.011 28.8938 130.53 28.7859 129.972 28.7859H126.889V33.212ZM126.889 27.1598H129.682C130.15 27.1598 130.571 27.0698 130.944 26.8899C131.322 26.71 131.621 26.4581 131.841 26.1342C132.066 25.8059 132.179 25.419 132.179 24.9737C132.179 24.4025 131.978 23.9234 131.578 23.5366C131.178 23.1497 130.564 22.9563 129.736 22.9563H126.889V27.1598Z" fill="white"/>
<path d="M137.236 35V21.1818H145.899V22.9766H139.32V27.1868H145.447V28.9748H139.32V33.2053H145.98V35H137.236Z" fill="white"/>
<path d="M148.684 35V21.1818H153.609C154.684 21.1818 155.575 21.3775 156.281 21.7688C156.987 22.1602 157.516 22.6954 157.867 23.3747C158.218 24.0494 158.393 24.8095 158.393 25.6552C158.393 26.5053 158.215 27.27 157.86 27.9492C157.509 28.6239 156.978 29.1592 156.268 29.555C155.561 29.9464 154.673 30.1421 153.603 30.1421H150.215V28.3743H153.414C154.093 28.3743 154.644 28.2573 155.067 28.0234C155.49 27.785 155.8 27.4612 155.998 27.0519C156.196 26.6425 156.295 26.177 156.295 25.6552C156.295 25.1334 156.196 24.6701 155.998 24.2653C155.8 23.8604 155.487 23.5433 155.06 23.3139C154.637 23.0845 154.079 22.9698 153.387 22.9698H150.769V35H148.684Z" fill="white"/>
<path d="M172.314 25.6754H170.209C170.128 25.2256 169.977 24.8298 169.757 24.4879C169.537 24.1461 169.267 23.8559 168.947 23.6175C168.628 23.3791 168.27 23.1992 167.874 23.0778C167.483 22.9563 167.067 22.8956 166.626 22.8956C165.83 22.8956 165.117 23.0958 164.487 23.4961C163.862 23.8964 163.367 24.4834 163.003 25.2571C162.643 26.0308 162.463 26.9754 162.463 28.0909C162.463 29.2154 162.643 30.1645 163.003 30.9382C163.367 31.7119 163.864 32.2966 164.494 32.6925C165.124 33.0883 165.832 33.2862 166.62 33.2862C167.056 33.2862 167.47 33.2278 167.861 33.1108C168.257 32.9894 168.614 32.8117 168.934 32.5778C169.253 32.3439 169.523 32.0582 169.743 31.7209C169.968 31.379 170.124 30.9877 170.209 30.5469L172.314 30.5536C172.202 31.2328 171.983 31.8581 171.66 32.4293C171.34 32.9961 170.929 33.4864 170.425 33.9002C169.926 34.3095 169.354 34.6267 168.711 34.8516C168.068 35.0765 167.366 35.1889 166.606 35.1889C165.41 35.1889 164.343 34.9055 163.408 34.3388C162.472 33.7675 161.735 32.9511 161.195 31.8896C160.66 30.828 160.392 29.5618 160.392 28.0909C160.392 26.6155 160.662 25.3493 161.202 24.2923C161.741 23.2307 162.479 22.4166 163.415 21.8498C164.35 21.2785 165.414 20.9929 166.606 20.9929C167.339 20.9929 168.023 21.0986 168.657 21.31C169.296 21.5169 169.869 21.8228 170.378 22.2276C170.886 22.628 171.307 23.1183 171.639 23.6985C171.972 24.2743 172.197 24.9332 172.314 25.6754Z" fill="white"/>
<path d="M174.809 21.1818H176.874V31.3296H177.002L184.032 21.1818H185.962V35H183.877V24.8658H183.749L176.732 35H174.809V21.1818Z" fill="white"/>
<path d="M198.8 35H196.708V22.9698H194.091C193.407 22.9698 192.851 23.0733 192.424 23.2802C191.997 23.4826 191.684 23.775 191.486 24.1573C191.288 24.5397 191.189 24.9917 191.189 25.5135C191.189 26.0308 191.288 26.4738 191.486 26.8427C191.684 27.2115 191.994 27.4927 192.417 27.6861C192.84 27.8795 193.391 27.9762 194.07 27.9762H197.613V29.771H193.875C192.809 29.771 191.92 29.5933 191.21 29.2379C190.503 28.8826 189.973 28.3855 189.617 27.7468C189.266 27.1036 189.091 26.3591 189.091 25.5135C189.091 24.6634 189.266 23.9144 189.617 23.2667C189.968 22.6145 190.497 22.1039 191.203 21.7351C191.913 21.3662 192.802 21.1818 193.868 21.1818H198.8V35ZM191.979 28.7656H194.286L190.933 35H188.565L191.979 28.7656Z" fill="white"/>
<path d="M216.223 25.5472C216.092 25.1379 215.917 24.7713 215.697 24.4475C215.481 24.1191 215.222 23.8402 214.921 23.6108C214.619 23.3769 214.275 23.1992 213.888 23.0778C213.506 22.9563 213.086 22.8956 212.627 22.8956C211.849 22.8956 211.147 23.0958 210.522 23.4961C209.896 23.8964 209.402 24.4834 209.037 25.2571C208.677 26.0263 208.497 26.9686 208.497 28.0842C208.497 29.2042 208.68 30.151 209.044 30.9247C209.408 31.6984 209.908 32.2854 210.542 32.6857C211.176 33.0861 211.898 33.2862 212.708 33.2862C213.459 33.2862 214.113 33.1333 214.671 32.8274C215.233 32.5216 215.667 32.0897 215.973 31.532C216.284 30.9697 216.439 30.3085 216.439 29.5483L216.979 29.6495H213.025V27.929H218.456V29.5011C218.456 30.6616 218.209 31.6692 217.714 32.5238C217.224 33.3739 216.545 34.0307 215.676 34.494C214.813 34.9573 213.823 35.1889 212.708 35.1889C211.457 35.1889 210.36 34.901 209.415 34.3253C208.475 33.7495 207.742 32.9331 207.215 31.8761C206.689 30.8145 206.426 29.555 206.426 28.0977C206.426 26.9956 206.579 26.006 206.885 25.1289C207.191 24.2518 207.62 23.5073 208.174 22.8956C208.731 22.2794 209.386 21.8093 210.137 21.4854C210.893 21.1571 211.718 20.9929 212.613 20.9929C213.36 20.9929 214.055 21.1031 214.698 21.3235C215.346 21.5439 215.922 21.8565 216.425 22.2614C216.934 22.6662 217.354 23.1475 217.687 23.7053C218.02 24.2585 218.245 24.8725 218.362 25.5472H216.223Z" fill="white"/>
<path d="M221.103 35V21.1818H226.028C227.103 21.1818 227.994 21.3775 228.7 21.7688C229.406 22.1602 229.935 22.6954 230.286 23.3747C230.637 24.0494 230.812 24.8095 230.812 25.6552C230.812 26.5053 230.634 27.27 230.279 27.9492C229.928 28.6239 229.397 29.1592 228.687 29.555C227.98 29.9464 227.092 30.1421 226.021 30.1421H222.634V28.3743H225.833C226.512 28.3743 227.063 28.2573 227.486 28.0234C227.908 27.785 228.219 27.4612 228.417 27.0519C228.615 26.6425 228.714 26.177 228.714 25.6552C228.714 25.1334 228.615 24.6701 228.417 24.2653C228.219 23.8604 227.906 23.5433 227.479 23.3139C227.056 23.0845 226.498 22.9698 225.806 22.9698H223.188V35H221.103Z" fill="white"/>
<path d="M232.575 22.9766V21.1818H243.269V22.9766H238.957V35H236.879V22.9766H232.575Z" fill="white"/>
</svg>
