<svg width="56" height="55" viewBox="0 0 56 55" fill="none" xmlns="http://www.w3.org/2000/svg">
<circle cx="28.4564" cy="27.5" r="26.0701" fill="#323232"/>
<path fill-rule="evenodd" clip-rule="evenodd" d="M28.4564 4.125C15.5468 4.125 5.08142 14.5903 5.08142 27.5C5.08142 40.4097 15.5468 50.875 28.4564 50.875C41.3661 50.875 51.8314 40.4097 51.8314 27.5C51.8314 14.5903 41.3661 4.125 28.4564 4.125ZM0.956421 27.5C0.956421 12.3122 13.2686 0 28.4564 0C43.6442 0 55.9564 12.3122 55.9564 27.5C55.9564 42.6878 43.6442 55 28.4564 55C13.2686 55 0.956421 42.6878 0.956421 27.5Z" fill="#323232"/>
<path fill-rule="evenodd" clip-rule="evenodd" d="M32.9841 20.8028C32.9841 19.6187 34.4156 19.0258 35.2529 19.863L41.1297 25.7398C41.6487 26.2588 41.6487 27.1003 41.1297 27.6193L35.2529 33.4961C34.4156 34.3334 32.9841 33.7404 32.9841 32.5564V20.8028Z" fill="white"/>
<path d="M15.6942 35.5703C20.5714 25.3702 34.1549 29.5817 34.1567 30.6481L34.1548 22.141C34.1548 22.0546 34.0797 21.9887 33.9934 21.989C15.566 22.0525 15.2437 32.9984 15.4172 35.5386C15.4278 35.6943 15.6269 35.711 15.6942 35.5703Z" fill="white"/>
</svg>
